<mxfile host="app.diagrams.net" modified="2023-07-21T07:59:01.508Z" agent="Mozilla/5.0 (Windows NT 10.0; Win64; x64; rv:109.0) Gecko/20100101 Firefox/115.0" version="21.5.2" etag="B4ddvamY-bJFiCALWh5B" type="github">
  <diagram name="Sivu-1" id="ZzH5GVIBW5RyC8Isl6N4">
    <mxGraphModel>
      <root>
        <mxCell id="0" />
        <mxCell id="1" parent="0" />
      </root>
    </mxGraphModel>
  </diagram>
</mxfile>
